HIERARCHY
ROOT Hips
{
	OFFSET 0.000000 0.000000 0.000000 
	CHANNELS 6 Xposition Yposition Zposition Zrotation Yrotation Xrotation
	JOINT LeftUpLeg
	{
		OFFSET 1.363060 -1.794630 0.839290 
		CHANNELS 3 Zrotation Yrotation Xrotation
		JOINT LeftLeg
		{
			OFFSET 2.448110 -6.726130 0.000000 
			CHANNELS 3 Zrotation Yrotation Xrotation
			JOINT LeftFoot
			{
				OFFSET 2.562200 -7.039590 0.000000 
				CHANNELS 3 Zrotation Yrotation Xrotation
				JOINT LeftToeBase
				{
					OFFSET 0.157640 -0.433110 2.322550 
					CHANNELS 3 Zrotation Yrotation Xrotation
					End Site
					{
						OFFSET 0.000000 0.000000 0.000000 
					}
				}
			}
		}
	}
	JOINT RightUpLeg
	{
		OFFSET -1.305520 -1.794630 0.839290 
		CHANNELS 3 Zrotation Yrotation Xrotation
		JOINT RightLeg
		{
			OFFSET -2.542530 -6.985550 0.000000 
			CHANNELS 3 Zrotation Yrotation Xrotation
			JOINT RightFoot
			{
				OFFSET -2.568260 -7.056230 0.000000 
				CHANNELS 3 Zrotation Yrotation Xrotation
				JOINT RightToeBase
				{
					OFFSET -0.164730 -0.452590 2.363150 
					CHANNELS 3 Zrotation Yrotation Xrotation
					End Site
					{
						OFFSET 0.000000 0.000000 0.000000 
					}
				}
			}
		}
	}
	JOINT Spine
	{
		OFFSET 0.028270 2.035590 -0.193380 
		CHANNELS 3 Zrotation Yrotation Xrotation
		JOINT Spine1
		{
			OFFSET 0.056720 2.048850 -0.042750 
			CHANNELS 3 Zrotation Yrotation Xrotation
			JOINT Neck1
			{
				OFFSET -0.054170 1.746240 0.172020 
				CHANNELS 3 Zrotation Yrotation Xrotation
				JOINT Head
				{
					OFFSET 0.104070 1.761360 -0.123970 
					CHANNELS 3 Zrotation Yrotation Xrotation
					End Site
					{
						OFFSET 0.000000 0.000000 0.000000 
					}
				}
			}
			JOINT LeftArm
			{
				OFFSET 3.362410 1.200890 -0.311210 
				CHANNELS 3 Zrotation Yrotation Xrotation
				JOINT LeftForeArm
				{
					OFFSET 4.983000 -0.000000 -0.000000 
					CHANNELS 3 Zrotation Yrotation Xrotation
					JOINT LeftHand
					{
						OFFSET 3.483560 -0.000000 -0.000000 
						CHANNELS 3 Zrotation Yrotation Xrotation
						JOINT LeftHandIndex1
						{
							OFFSET 0.715260 -0.000000 -0.000000 
							CHANNELS 3 Zrotation Yrotation Xrotation
							End Site
							{
								OFFSET 0.000000 0.000000 0.000000 
							}
						}
					}
				}
			}
			JOINT RightArm
			{
				OFFSET -3.136600 1.374050 -0.404650 
				CHANNELS 3 Zrotation Yrotation Xrotation
				JOINT RightForeArm
				{
					OFFSET -5.241900 -0.000000 -0.000000 
					CHANNELS 3 Zrotation Yrotation Xrotation
					JOINT RightHand
					{
						OFFSET -3.444170 -0.000000 -0.000000 
						CHANNELS 3 Zrotation Yrotation Xrotation
						JOINT RightHandIndex1
						{
							OFFSET -0.622530 -0.000000 -0.000000 
							CHANNELS 3 Zrotation Yrotation Xrotation
							End Site
							{
								OFFSET 0.000000 0.000000 0.000000 
							}
						}
					}
				}
			}
		}
	}
}
MOTION
Frames: 15
Frame Time: 0.041667
-0.896179 17.622581 -0.119717 1.957749 -2.124527 4.071473 -22.680617 -5.191077 -1.842086 -0.361440 2.220990 10.787722 -2.278643 14.864410 -12.275283 0.761800 -5.573900 -15.552900 29.349356 5.618556 -5.009347 -1.793566 -5.328939 19.825897 1.068015 -14.223351 -17.347617 -0.093400 1.970900 -5.425300 1.590659 3.036241 1.065930 1.267818 1.549438 4.146202 2.582531 -7.131749 15.063539 1.232900 -3.672800 4.961300 -78.487054 15.327218 49.555138 106.320176 -57.892830 -73.719998 1.028317 0.633377 -5.403298 -7.125000 0.000000 0.000000 77.748611 -13.086666 34.124327 -94.220557 57.320571 -57.560171 0.220789 0.074995 19.679306 7.125000 0.000000 0.000000 
-0.898994 17.621027 -0.119329 2.005588 -2.099243 4.085982 -22.729969 -5.239556 -1.856970 -0.358990 2.230904 10.812563 -2.274353 14.830275 -12.221412 0.725500 -5.442500 -15.175000 29.295970 5.592765 -5.070106 -1.803596 -5.353361 19.892619 1.063101 -14.200385 -17.344687 -0.095900 1.996700 -5.496600 1.582642 3.041260 1.068209 1.274741 1.551204 4.161929 2.610899 -7.141785 15.089154 1.251600 -3.679500 4.981300 -78.487247 15.355268 49.598521 106.348248 -57.891300 -73.747222 1.034722 0.623538 -5.404634 -7.125000 0.000000 0.000000 77.746239 -13.147393 34.168908 -94.348909 57.304164 -57.683057 0.216701 0.073375 19.626042 7.125000 0.000000 0.000000 
-0.902878 17.617435 -0.120203 2.053827 -2.097617 4.105395 -22.774685 -5.251994 -1.865758 -0.358661 2.231974 10.814945 -2.267454 14.785724 -12.173268 0.691600 -5.316500 -14.813600 29.254874 5.656191 -5.150267 -1.817931 -5.392230 19.996956 1.058781 -14.213393 -17.405538 -0.097200 2.010800 -5.535600 1.558740 3.082363 1.069797 1.249406 1.571528 4.167275 2.662758 -7.172610 15.094278 1.269800 -3.691800 4.985500 -78.411705 15.356907 49.682008 106.370495 -57.887280 -73.767072 1.041093 0.613675 -5.399691 -7.125000 0.000000 0.000000 77.844883 -13.192275 34.125689 -94.444419 57.293746 -57.771367 0.210263 0.074734 19.574450 7.125000 0.000000 0.000000 
-0.904917 17.616852 -0.120785 2.075831 -2.085070 4.117855 -22.798217 -5.308459 -1.866475 -0.358175 2.239607 10.834129 -2.283859 14.883398 -12.244442 0.724000 -5.437000 -15.159200 29.228853 5.581465 -5.228646 -1.828082 -5.417265 20.065979 1.039705 -14.116382 -17.411625 -0.100400 2.043600 -5.626000 1.537311 3.110318 1.065245 1.194457 1.588520 4.159157 2.681150 -7.175730 15.104444 1.271200 -3.690500 4.989000 -78.335682 15.382385 49.737895 106.410160 -57.879421 -73.807121 1.029668 0.603877 -5.405114 -7.125000 0.000000 0.000000 77.941226 -13.239869 34.096208 -94.519488 57.284959 -57.839292 0.205548 0.071928 19.596754 7.125000 0.000000 0.000000 
-0.906568 17.617337 -0.122436 2.078511 -2.050501 4.119969 -22.790011 -5.337858 -1.863496 -0.361370 2.231661 10.808962 -2.300151 14.966322 -12.274869 0.757200 -5.557400 -15.505400 29.232462 5.492355 -5.312278 -1.839175 -5.445514 20.145470 1.027137 -14.055941 -17.422256 -0.103600 2.075100 -5.713200 1.544512 3.104880 1.066584 1.195693 1.586618 4.153197 2.639675 -7.158784 15.118439 1.249100 -3.681900 4.995500 -78.333306 15.393264 49.739817 106.460389 -57.871768 -73.858748 1.016674 0.593694 -5.499215 -7.125000 0.000000 0.000000 77.945444 -13.293340 34.121803 -94.655067 57.266967 -57.970911 0.203834 0.069376 19.639854 7.125000 0.000000 0.000000 
-0.909578 17.617240 -0.126514 2.082171 -1.942922 4.097909 -22.775818 -5.363438 -1.831652 -0.366481 2.208458 10.744172 -2.294797 14.898828 -12.139856 0.732000 -5.466400 -15.243700 29.243574 5.479731 -5.332964 -1.846113 -5.465882 20.205375 1.019388 -14.076016 -17.543642 -0.093400 1.971400 -5.426500 1.546487 3.085616 1.069751 1.176370 1.578662 4.121633 2.599490 -7.178591 15.069511 1.222900 -3.689100 4.966300 -78.316801 15.375983 49.764261 106.498720 -57.864674 -73.897585 0.988324 0.610125 -5.564807 -7.125000 0.000000 0.000000 77.984192 -13.319142 34.105462 -94.778518 57.251687 -58.091504 0.204011 0.070667 19.638955 7.125000 0.000000 0.000000 
-0.913656 17.615687 -0.131077 2.217393 -1.781959 4.001158 -22.910905 -5.457517 -1.733712 -0.366301 2.206721 10.750007 -2.278598 14.809649 -12.083547 0.702500 -5.357200 -14.930300 29.102966 5.339296 -5.278709 -1.850786 -5.468515 20.221129 1.039618 -14.168888 -17.502646 -0.097900 2.017400 -5.553700 1.531112 3.033988 1.081504 1.192403 1.550440 4.070511 2.606267 -7.170529 15.064889 1.223300 -3.684000 4.965700 -78.302467 15.373774 49.783047 106.573583 -57.854431 -73.964810 0.955590 0.648986 -5.645491 -7.125000 0.000000 0.000000 77.992039 -13.349240 34.153395 -94.896439 57.235075 -58.204660 0.201024 0.064908 19.612436 7.125000 0.000000 0.000000 
-0.917151 17.615590 -0.133893 2.298820 -1.682915 3.937968 -22.988713 -5.546378 -1.697920 -0.360441 2.230238 10.817373 -2.289487 14.865028 -12.094357 0.754800 -5.548700 -15.480400 29.024316 5.292368 -5.212079 -1.851314 -5.464844 20.217177 1.049858 -14.228746 -17.508785 -0.092100 1.957600 -5.388400 1.527109 3.000697 1.102182 1.205983 1.532125 4.071103 2.604068 -7.143817 15.067260 1.226600 -3.672100 4.966200 -78.316741 15.390256 49.741651 106.684542 -57.841935 -74.067328 0.939226 0.655791 -5.687888 -7.125000 0.000000 0.000000 77.962605 -13.371036 34.228690 -95.077099 57.211648 -58.380824 0.199920 0.059739 19.545999 7.125000 0.000000 0.000000 
-0.920452 17.615493 -0.138553 2.194962 -1.631960 3.937910 -22.871471 -5.505895 -1.784252 -0.348707 2.267340 10.904290 -2.328174 14.994693 -11.940161 0.869800 -5.946300 -16.628800 29.166277 5.355582 -5.178609 -1.847472 -5.462400 20.214805 1.038092 -14.225302 -17.639882 -0.081600 1.842900 -5.071600 1.558936 2.991757 1.115765 1.198210 1.531617 4.077467 2.609801 -7.135394 15.025497 1.241900 -3.671500 4.947700 -78.391101 15.400947 49.680544 106.778105 -57.836548 -74.148701 0.954260 0.655447 -5.661200 -7.125000 0.000000 0.000000 77.891126 -13.347694 34.297286 -95.217845 57.193861 -58.520397 0.202203 0.055914 19.464235 7.125000 0.000000 0.000000 
-0.926569 17.614910 -0.147680 2.126477 -1.562137 3.917703 -22.779839 -5.436020 -1.909012 -0.334009 2.310988 11.007022 -2.350879 15.017625 -11.660323 0.953800 -6.219200 -17.421800 29.294139 5.495123 -5.127474 -1.842811 -5.459135 20.208820 1.048580 -14.346376 -17.775601 -0.074700 1.763400 -4.852100 1.578380 2.964842 1.104382 1.187633 1.522643 3.983571 2.607313 -7.096067 14.973545 1.246000 -3.653200 4.918700 -78.431334 15.408615 49.616587 106.825448 -57.831969 -74.187881 0.961456 0.660961 -5.680801 -7.125000 0.000000 0.000000 77.889147 -13.349290 34.361046 -95.319371 57.179835 -58.619877 0.205356 0.055850 19.431844 7.125000 0.000000 0.000000 
-0.933463 17.614522 -0.154088 2.055064 -1.544632 3.956833 -22.668754 -5.465675 -2.048382 -0.324765 2.349037 11.094546 -2.337137 14.951446 -11.637479 0.942900 -6.184500 -17.320800 29.423126 5.665038 -5.147173 -1.838204 -5.457965 20.200550 1.062614 -14.457195 -17.850233 -0.066000 1.657300 -4.559600 1.595548 2.977557 1.076585 1.186762 1.534365 3.884964 2.616123 -7.068173 14.890807 1.257900 -3.640700 4.865200 -78.462274 15.478761 49.554945 106.894870 -57.823963 -74.254892 0.954109 0.647903 -5.727796 -7.125000 0.000000 0.000000 77.908446 -13.435267 34.403612 -95.515747 57.153484 -58.813995 0.211555 0.058509 19.329393 7.125000 0.000000 0.000000 
-0.935793 17.615298 -0.153409 2.108391 -1.567041 4.032726 -22.727922 -5.517383 -2.114431 -0.326101 2.354861 11.104780 -2.344023 15.015976 -11.741102 0.960200 -6.239300 -17.480500 29.362513 5.693215 -5.245519 -1.840009 -5.464421 20.206213 1.054442 -14.410423 -17.835789 -0.066800 1.667300 -4.587100 1.584505 3.006545 1.075254 1.179236 1.548648 3.930592 2.634598 -7.067096 14.933352 1.269800 -3.641600 4.894700 -78.594680 15.568940 49.350085 106.941355 -57.820440 -74.310138 0.964042 0.582589 -5.638840 -7.125000 0.000000 0.000000 77.877984 -13.458575 34.467416 -95.699157 57.130044 -58.997089 0.219867 0.057776 19.157972 7.125000 0.000000 0.000000 
-0.937929 17.615201 -0.150593 2.182127 -1.537274 4.014104 -22.808826 -5.503746 -2.038736 -0.332687 2.328573 11.042225 -2.347586 15.029828 -11.736596 0.976200 -6.289600 -17.627000 29.270858 5.577014 -5.255743 -1.845042 -5.470917 20.225826 1.058067 -14.394537 -17.759579 -0.075900 1.777000 -4.889600 1.570770 3.005488 1.097465 1.166845 1.546161 3.996054 2.620444 -7.068228 14.998831 1.260600 -3.642300 4.937600 -78.668636 15.626935 49.185410 107.018924 -57.812121 -74.389903 0.991759 0.506960 -5.573937 -7.125000 0.000000 0.000000 77.854726 -13.457305 34.550629 -95.856396 57.110161 -59.152865 0.225718 0.055689 19.031384 7.125000 0.000000 0.000000 
-0.942493 17.615201 -0.153117 2.205989 -1.412457 3.960367 -22.805957 -5.495722 -1.942201 -0.342345 2.285884 10.931101 -2.348628 14.992818 -11.608683 0.982800 -6.310300 -17.687500 29.257745 5.433204 -5.244347 -1.849918 -5.480467 20.260201 1.058169 -14.406585 -17.782242 -0.075600 1.773600 -4.880300 1.573902 2.967558 1.111845 1.152363 1.527177 3.998219 2.586025 -7.007242 15.056675 1.230200 -3.608500 4.968400 -78.674577 15.625160 49.113742 107.112082 -57.797962 -74.477354 0.967425 0.514993 -5.630446 -7.125000 0.000000 0.000000 77.845597 -13.469545 34.600800 -96.014677 57.088572 -59.308405 0.223758 0.052894 18.957364 7.125000 0.000000 0.000000 
-0.946473 17.614910 -0.160302 2.314970 -1.195351 3.937170 -22.896301 -5.617458 -1.858426 -0.356785 2.234863 10.794025 -2.347280 14.959841 -11.520622 0.949000 -6.203900 -17.377100 29.146165 5.277891 -5.289459 -1.855359 -5.491381 20.292443 1.045745 -14.394701 -17.881671 -0.064300 1.636000 -4.500800 1.566204 2.903217 1.096449 1.143406 1.494689 3.934931 2.524226 -6.901170 15.159126 1.173700 -3.548500 5.012200 -78.661092 15.625804 49.121392 107.210436 -57.781280 -74.569111 0.905661 0.571103 -5.679106 -7.125000 0.000000 0.000000 77.847990 -13.540757 34.628086 -96.169480 57.064700 -59.459872 0.217217 0.049187 18.849039 7.125000 0.000000 0.000000 
